<svg xmlns="http://www.w3.org/2000/svg" version="1.0" preserveAspectRatio="xMidYMid meet" viewBox="178.23 173.9 246.17 249.23">
<g transform="translate(0.000000,600.000000) scale(0.100000,-0.100000)" fill="#000000" stroke="none">
<path d="M2270 4245 c-89 -20 -215 -84 -276 -142 -138 -129 -196 -262 -210 -479 -12 -192 37 -317 180 -459 45 -44 123 -109 173 -145 108 -75 236 -146 241 -132 1 5 -7 63 -18 128 -30 165 -37 395 -16 494 45 214 165 335 403 406 75 23 108 27 223 28 325 2 524 -105 611 -332 31 -80 37 -238 14 -350 -9 -46 -14 -86 -12 -89 10 -9 63 27 116 79 147 146 166 372 47 551 -133 200 -393 349 -746 428 -82 18 -135 22 -380 25 -223 3 -299 0 -350 -11z"/>
<path d="M3375 4222 c303 -118 470 -265 550 -483 71 -193 28 -396 -117 -554 -140 -152 -320 -218 -598 -217 -294 1 -555 90 -717 245 -32 31 -43 37 -43 24 0 -33 60 -371 75 -422 13 -43 23 -56 72 -90 87 -60 259 -231 309 -306 24 -37 55 -92 69 -123 14 -31 28 -56 32 -56 5 0 37 51 73 112 73 126 170 235 283 321 39 31 167 115 282 187 431 270 511 346 570 540 26 85 31 280 10 376 -49 226 -199 388 -425 459 -44 14 -103 18 -290 22 l-235 4 100 -39z"/>
<path d="M2891 3829 c-174 -22 -310 -101 -379 -219 -35 -59 -37 -152 -5 -223 90 -197 511 -345 843 -297 39 5 69 16 76 25 34 47 75 288 60 350 -7 27 -7 27 -67 -39 -132 -144 -336 -191 -538 -124 -71 23 -140 78 -161 128 -7 18 -11 55 -8 90 3 49 9 65 33 90 56 59 89 52 68 -15 -18 -52 -12 -82 22 -123 102 -121 406 -93 510 48 27 36 34 105 16 152 -28 74 -150 140 -292 158 -91 11 -87 11 -178 -1z"/>
<path d="M1792 2693 l3 -438 27 -74 c73 -199 249 -354 453 -396 100 -21 643 -22 651 -1 10 26 -15 260 -36 340 -66 247 -240 441 -575 640 -191 114 -360 228 -453 306 l-73 62 3 -439z"/>
<path d="M4190 3084 c-56 -57 -174 -142 -305 -218 -391 -230 -478 -295 -600 -451 -149 -190 -218 -392 -200 -577 l7 -68 297 0 c340 0 390 7 519 71 138 67 246 191 299 340 27 74 27 74 34 498 4 234 4 431 0 438 -5 9 -19 0 -51 -33z"/>
</g>
</svg>